<?xml version="1.0" encoding="UTF-8" standalone="no"?>
<!DOCTYPE svg PUBLIC "-//W3C//DTD SVG 1.1//EN"
 "http://www.w3.org/Graphics/SVG/1.1/DTD/svg11.dtd">
<!-- Generated by graphviz version 2.43.0 (0)
 -->
<!-- Title: pipeline Pages: 1 -->
<svg width="797pt" height="1320pt"
 viewBox="0.00 0.00 797.00 1320.00" xmlns="http://www.w3.org/2000/svg" xmlns:xlink="http://www.w3.org/1999/xlink">
<g id="graph0" class="graph" transform="scale(1 1) rotate(0) translate(4 1316)">
<title>pipeline</title>
<polygon fill="#ffffff" stroke="transparent" points="-4,4 -4,-1316 793,-1316 793,4 -4,4"/>
<!-- zip -->
<g id="node1" class="node">
<title>zip</title>
<polygon fill="#fdf6e3" stroke="transparent" points="329,-1278 329,-1308 460,-1308 460,-1278 329,-1278"/>
<polygon fill="none" stroke="black" points="329.5,-1278 329.5,-1308 460.5,-1308 460.5,-1278 329.5,-1278"/>
<text text-anchor="start" x="338.5" y="-1291.2" font-family="Helvetica,sans-Serif" font-weight="bold" font-size="11.00">📦 Notion Export.zip</text>
</g>
<!-- vfs -->
<g id="node2" class="node">
<title>vfs</title>
<polygon fill="#fff3d6" stroke="transparent" points="312.5,-1108 312.5,-1146 476.5,-1146 476.5,-1108 312.5,-1108"/>
<polygon fill="none" stroke="black" points="312.5,-1108 312.5,-1146 476.5,-1146 476.5,-1108 312.5,-1108"/>
<text text-anchor="start" x="321.5" y="-1129.2" font-family="Helvetica,sans-Serif" font-weight="bold" font-size="11.00">🗂️ VirtualFS</text>
<text text-anchor="start" x="388.5" y="-1129.2" font-family="Helvetica,sans-Serif" font-size="11.00"> &#160;</text>
<text text-anchor="start" x="396.5" y="-1129.2" font-family="Helvetica,sans-Serif" font-style="italic" font-size="9.00">in&#45;memory tree</text>
<text text-anchor="start" x="351.5" y="-1119.8" font-family="Helvetica,sans-Serif" font-style="italic" font-size="9.00">+ resource registry</text>
</g>
<!-- zip&#45;&gt;vfs -->
<g id="edge1" class="edge">
<title>zip&#45;&gt;vfs</title>
<path fill="none" stroke="#4a6fa5" d="M394.5,-1273.82C394.5,-1245.91 394.5,-1192.19 394.5,-1158.33"/>
<polygon fill="#4a6fa5" stroke="#4a6fa5" points="397.3,-1158.17 394.5,-1150.17 391.7,-1158.17 397.3,-1158.17"/>
</g>
<!-- classes -->
<g id="node4" class="node">
<title>classes</title>
<polygon fill="#f4f7fb" stroke="transparent" points="521.5,-1020 521.5,-1234 753.5,-1234 753.5,-1020 521.5,-1020"/>
<text text-anchor="start" x="532.5" y="-1215.2" font-family="Helvetica,sans-Serif" font-weight="bold" font-size="11.00">Core classes</text>
<text text-anchor="start" x="602.5" y="-1215.2" font-family="Helvetica,sans-Serif" font-size="11.00"> &#160;</text>
<text text-anchor="start" x="610.5" y="-1215.2" font-family="Helvetica,sans-Serif" font-style="italic" font-size="9.00">(virtual_fs/)</text>
<polygon fill="white" stroke="transparent" points="526.5,-1160 526.5,-1201 617.5,-1201 617.5,-1160 526.5,-1160"/>
<text text-anchor="start" x="532.5" y="-1187.2" font-family="Helvetica,sans-Serif" font-weight="bold" font-size="11.00">📁 Directory</text>
<text text-anchor="start" x="532.5" y="-1177.8" font-family="Helvetica,sans-Serif" font-size="9.00">Subdirs, files,</text>
<text text-anchor="start" x="532.5" y="-1168.8" font-family="Helvetica,sans-Serif" font-size="9.00">inner/outer index</text>
<polygon fill="white" stroke="transparent" points="621.5,-1160 621.5,-1201 748.5,-1201 748.5,-1160 621.5,-1160"/>
<text text-anchor="start" x="627.5" y="-1187.2" font-family="Helvetica,sans-Serif" font-weight="bold" font-size="11.00">🌐 RootSection</text>
<text text-anchor="start" x="627.5" y="-1177.8" font-family="Helvetica,sans-Serif" font-size="9.00">en/ and cz/</text>
<text text-anchor="start" x="627.5" y="-1168.8" font-family="Helvetica,sans-Serif" font-size="9.00">top&#45;level dirs</text>
<polygon fill="white" stroke="transparent" points="526.5,-1115 526.5,-1156 617.5,-1156 617.5,-1115 526.5,-1115"/>
<text text-anchor="start" x="532.5" y="-1142.2" font-family="Helvetica,sans-Serif" font-weight="bold" font-size="11.00">📄 HtmlPage</text>
<text text-anchor="start" x="532.5" y="-1132.8" font-family="Helvetica,sans-Serif" font-size="9.00">DOM, metadata,</text>
<text text-anchor="start" x="532.5" y="-1123.8" font-family="Helvetica,sans-Serif" font-size="9.00">sidebar wrapper</text>
<polygon fill="white" stroke="transparent" points="621.5,-1115 621.5,-1156 748.5,-1156 748.5,-1115 621.5,-1115"/>
<text text-anchor="start" x="627.5" y="-1142.2" font-family="Helvetica,sans-Serif" font-weight="bold" font-size="11.00">🗄 Data</text>
<text text-anchor="start" x="627.5" y="-1132.8" font-family="Helvetica,sans-Serif" font-size="9.00">Binary files</text>
<text text-anchor="start" x="627.5" y="-1123.8" font-family="Helvetica,sans-Serif" font-size="9.00">(images, csv, …)</text>
<polygon fill="white" stroke="transparent" points="526.5,-1070 526.5,-1111 617.5,-1111 617.5,-1070 526.5,-1070"/>
<text text-anchor="start" x="532.5" y="-1097.2" font-family="Helvetica,sans-Serif" font-weight="bold" font-size="11.00">🏷️ Tags</text>
<text text-anchor="start" x="532.5" y="-1087.8" font-family="Helvetica,sans-Serif" font-size="9.00">Tag pages and</text>
<text text-anchor="start" x="532.5" y="-1078.8" font-family="Helvetica,sans-Serif" font-size="9.00">tag index</text>
<polygon fill="white" stroke="transparent" points="621.5,-1070 621.5,-1111 748.5,-1111 748.5,-1070 621.5,-1070"/>
<text text-anchor="start" x="627.5" y="-1097.2" font-family="Helvetica,sans-Serif" font-weight="bold" font-size="11.00">📋 Metadata</text>
<text text-anchor="start" x="627.5" y="-1087.8" font-family="Helvetica,sans-Serif" font-size="9.00">Date, tags, refs,</text>
<text text-anchor="start" x="627.5" y="-1078.8" font-family="Helvetica,sans-Serif" font-size="9.00">cover image, …</text>
<polygon fill="white" stroke="transparent" points="526.5,-1025 526.5,-1066 617.5,-1066 617.5,-1025 526.5,-1025"/>
<text text-anchor="start" x="532.5" y="-1052.2" font-family="Helvetica,sans-Serif" font-weight="bold" font-size="11.00">📑 Sidebar</text>
<text text-anchor="start" x="532.5" y="-1042.8" font-family="Helvetica,sans-Serif" font-size="9.00">Backlinks, last 5,</text>
<text text-anchor="start" x="532.5" y="-1033.8" font-family="Helvetica,sans-Serif" font-size="9.00">categories</text>
<polygon fill="white" stroke="transparent" points="621.5,-1025 621.5,-1066 748.5,-1066 748.5,-1025 621.5,-1025"/>
<text text-anchor="start" x="627.5" y="-1052.2" font-family="Helvetica,sans-Serif" font-weight="bold" font-size="11.00">🔖 ResourceRegistry</text>
<text text-anchor="start" x="627.5" y="-1042.8" font-family="Helvetica,sans-Serif" font-size="9.00">Canonical paths</text>
<text text-anchor="start" x="627.5" y="-1033.8" font-family="Helvetica,sans-Serif" font-size="9.00">for static assets</text>
<polygon fill="none" stroke="black" points="521.5,-1020 521.5,-1234 753.5,-1234 753.5,-1020 521.5,-1020"/>
</g>
<!-- vfs&#45;&gt;classes -->
<g id="edge3" class="edge">
<title>vfs&#45;&gt;classes</title>
<path fill="none" stroke="#999999" stroke-dasharray="5,2" d="M484.68,-1127C494.23,-1127 503.78,-1127 513.33,-1127"/>
</g>
<!-- pre -->
<g id="node5" class="node">
<title>pre</title>
<polygon fill="#f4f7fb" stroke="transparent" points="39.5,-807 39.5,-976 749.5,-976 749.5,-807 39.5,-807"/>
<text text-anchor="start" x="50.5" y="-956.7" font-family="Helvetica,sans-Serif" font-weight="bold" font-size="11.00">Preprocessors</text>
<text text-anchor="start" x="129.5" y="-956.7" font-family="Helvetica,sans-Serif" font-size="11.00"> &#160;</text>
<text text-anchor="start" x="137.5" y="-956.7" font-family="Helvetica,sans-Serif" font-style="italic" font-size="9.00">(whole tree)</text>
<polygon fill="white" stroke="transparent" points="44.5,-901.5 44.5,-942.5 212.5,-942.5 212.5,-901.5 44.5,-901.5"/>
<text text-anchor="start" x="50.5" y="-928.7" font-family="Helvetica,sans-Serif" font-weight="bold" font-size="11.00">📦 SquashToplevel</text>
<text text-anchor="start" x="50.5" y="-919.3" font-family="Helvetica,sans-Serif" font-size="9.00">Drop the wrapper</text>
<text text-anchor="start" x="50.5" y="-910.3" font-family="Helvetica,sans-Serif" font-size="9.00">top dir from zip</text>
<polygon fill="white" stroke="transparent" points="216.5,-901.5 216.5,-942.5 348.5,-942.5 348.5,-901.5 216.5,-901.5"/>
<text text-anchor="start" x="222.5" y="-928.7" font-family="Helvetica,sans-Serif" font-weight="bold" font-size="11.00">📋 LoadMetadata</text>
<text text-anchor="start" x="222.5" y="-919.3" font-family="Helvetica,sans-Serif" font-size="9.00">Parse per&#45;page</text>
<text text-anchor="start" x="222.5" y="-910.3" font-family="Helvetica,sans-Serif" font-size="9.00">metadata blocks</text>
<polygon fill="white" stroke="transparent" points="352.5,-901.5 352.5,-942.5 503.5,-942.5 503.5,-901.5 352.5,-901.5"/>
<text text-anchor="start" x="358.5" y="-928.7" font-family="Helvetica,sans-Serif" font-weight="bold" font-size="11.00">🔗 CollectRefs</text>
<text text-anchor="start" x="358.5" y="-919.3" font-family="Helvetica,sans-Serif" font-size="9.00">Build cross&#45;page</text>
<text text-anchor="start" x="358.5" y="-910.3" font-family="Helvetica,sans-Serif" font-size="9.00">backlink index</text>
<polygon fill="white" stroke="transparent" points="507.5,-901.5 507.5,-942.5 631.5,-942.5 631.5,-901.5 507.5,-901.5"/>
<text text-anchor="start" x="513.5" y="-928.7" font-family="Helvetica,sans-Serif" font-weight="bold" font-size="11.00">🪛 UnfuckFilenames</text>
<text text-anchor="start" x="513.5" y="-919.3" font-family="Helvetica,sans-Serif" font-size="9.00">NFKD&#45;normalize</text>
<text text-anchor="start" x="513.5" y="-910.3" font-family="Helvetica,sans-Serif" font-size="9.00">weird unicode</text>
<polygon fill="white" stroke="transparent" points="635.5,-901.5 635.5,-942.5 744.5,-942.5 744.5,-901.5 635.5,-901.5"/>
<text text-anchor="start" x="641.5" y="-928.7" font-family="Helvetica,sans-Serif" font-weight="bold" font-size="11.00">␣ ConvertSpaces</text>
<text text-anchor="start" x="641.5" y="-919.3" font-family="Helvetica,sans-Serif" font-size="9.00">Spaces in names</text>
<text text-anchor="start" x="641.5" y="-910.3" font-family="Helvetica,sans-Serif" font-size="9.00">→ underscores</text>
<polygon fill="white" stroke="transparent" points="44.5,-856.5 44.5,-897.5 212.5,-897.5 212.5,-856.5 44.5,-856.5"/>
<text text-anchor="start" x="50.5" y="-883.7" font-family="Helvetica,sans-Serif" font-weight="bold" font-size="11.00">📑 GenerateIndexes</text>
<text text-anchor="start" x="50.5" y="-874.3" font-family="Helvetica,sans-Serif" font-size="9.00">Auto index.html</text>
<text text-anchor="start" x="50.5" y="-865.3" font-family="Helvetica,sans-Serif" font-size="9.00">for every dir</text>
<polygon fill="white" stroke="transparent" points="216.5,-856.5 216.5,-897.5 348.5,-897.5 348.5,-856.5 216.5,-856.5"/>
<text text-anchor="start" x="222.5" y="-883.7" font-family="Helvetica,sans-Serif" font-weight="bold" font-size="11.00">🌐 MakeRootSections</text>
<text text-anchor="start" x="222.5" y="-874.3" font-family="Helvetica,sans-Serif" font-size="9.00">Rename to</text>
<text text-anchor="start" x="222.5" y="-865.3" font-family="Helvetica,sans-Serif" font-size="9.00">en/ and cz/</text>
<polygon fill="white" stroke="transparent" points="352.5,-856.5 352.5,-897.5 503.5,-897.5 503.5,-856.5 352.5,-856.5"/>
<text text-anchor="start" x="358.5" y="-883.7" font-family="Helvetica,sans-Serif" font-weight="bold" font-size="11.00">🏷️ GenerateTagStructure</text>
<text text-anchor="start" x="358.5" y="-874.3" font-family="Helvetica,sans-Serif" font-size="9.00">Build Tags/ and</text>
<text text-anchor="start" x="358.5" y="-865.3" font-family="Helvetica,sans-Serif" font-size="9.00">Tagy/ pages</text>
<polygon fill="white" stroke="transparent" points="507.5,-856.5 507.5,-897.5 631.5,-897.5 631.5,-856.5 507.5,-856.5"/>
<text text-anchor="start" x="513.5" y="-883.7" font-family="Helvetica,sans-Serif" font-weight="bold" font-size="11.00">📁 AddStaticFiles</text>
<text text-anchor="start" x="513.5" y="-874.3" font-family="Helvetica,sans-Serif" font-size="9.00">Inject CSS/JS/img</text>
<text text-anchor="start" x="513.5" y="-865.3" font-family="Helvetica,sans-Serif" font-size="9.00">into vfs</text>
<polygon fill="white" stroke="transparent" points="635.5,-856.5 635.5,-897.5 744.5,-897.5 744.5,-856.5 635.5,-856.5"/>
<text text-anchor="start" x="641.5" y="-883.7" font-family="Helvetica,sans-Serif" font-weight="bold" font-size="11.00">🛠️ FixChangelogs</text>
<text text-anchor="start" x="641.5" y="-874.3" font-family="Helvetica,sans-Serif" font-size="9.00">Repair broken</text>
<text text-anchor="start" x="641.5" y="-865.3" font-family="Helvetica,sans-Serif" font-size="9.00">changelog tables</text>
<polygon fill="white" stroke="transparent" points="44.5,-811.5 44.5,-852.5 212.5,-852.5 212.5,-811.5 44.5,-811.5"/>
<text text-anchor="start" x="50.5" y="-838.7" font-family="Helvetica,sans-Serif" font-weight="bold" font-size="11.00">📰 MakeChangelogReadable</text>
<text text-anchor="start" x="50.5" y="-829.3" font-family="Helvetica,sans-Serif" font-size="9.00">Render changelog</text>
<text text-anchor="start" x="50.5" y="-820.3" font-family="Helvetica,sans-Serif" font-size="9.00">as a real page</text>
<polygon fill="white" stroke="transparent" points="216.5,-811.5 216.5,-852.5 348.5,-852.5 348.5,-811.5 216.5,-811.5"/>
<text text-anchor="start" x="222.5" y="-838.7" font-family="Helvetica,sans-Serif" font-weight="bold" font-size="11.00">🧹 RemoveDullTables</text>
<text text-anchor="start" x="222.5" y="-829.3" font-family="Helvetica,sans-Serif" font-size="9.00">Drop Notion&#39;s</text>
<text text-anchor="start" x="222.5" y="-820.3" font-family="Helvetica,sans-Serif" font-size="9.00">table&#45;of&#45;pages dirs</text>
<polygon fill="#f4f7fb" stroke="transparent" points="352.5,-811.5 352.5,-852.5 503.5,-852.5 503.5,-811.5 352.5,-811.5"/>
<polygon fill="#f4f7fb" stroke="transparent" points="507.5,-811.5 507.5,-852.5 631.5,-852.5 631.5,-811.5 507.5,-811.5"/>
<polygon fill="#f4f7fb" stroke="transparent" points="635.5,-811.5 635.5,-852.5 744.5,-852.5 744.5,-811.5 635.5,-811.5"/>
<polygon fill="none" stroke="black" points="39.5,-807 39.5,-976 749.5,-976 749.5,-807 39.5,-807"/>
</g>
<!-- vfs&#45;&gt;pre -->
<g id="edge4" class="edge">
<title>vfs&#45;&gt;pre</title>
<path fill="none" stroke="#4a6fa5" d="M394.5,-1103.61C394.5,-1076.96 394.5,-1030.73 394.5,-988.3"/>
<polygon fill="#4a6fa5" stroke="#4a6fa5" points="397.3,-988.15 394.5,-980.15 391.7,-988.15 397.3,-988.15"/>
</g>
<!-- helpers -->
<g id="node3" class="node">
<title>helpers</title>
<polygon fill="#fbf4f4" stroke="transparent" points="37.5,-1065 37.5,-1189 267.5,-1189 267.5,-1065 37.5,-1065"/>
<text text-anchor="start" x="48.5" y="-1170.2" font-family="Helvetica,sans-Serif" font-weight="bold" font-size="11.00">Support</text>
<text text-anchor="start" x="92.5" y="-1170.2" font-family="Helvetica,sans-Serif" font-size="11.00"> &#160;</text>
<text text-anchor="start" x="100.5" y="-1170.2" font-family="Helvetica,sans-Serif" font-style="italic" font-size="9.00">(top&#45;level)</text>
<polygon fill="white" stroke="transparent" points="42.5,-1115 42.5,-1156 152.5,-1156 152.5,-1115 42.5,-1115"/>
<text text-anchor="start" x="48.5" y="-1142.2" font-family="Helvetica,sans-Serif" font-weight="bold" font-size="11.00">🚀 BlogGenerator</text>
<text text-anchor="start" x="48.5" y="-1132.8" font-family="Helvetica,sans-Serif" font-size="9.00">Orchestrates the</text>
<text text-anchor="start" x="48.5" y="-1123.8" font-family="Helvetica,sans-Serif" font-size="9.00">whole pipeline</text>
<polygon fill="white" stroke="transparent" points="156.5,-1115 156.5,-1156 262.5,-1156 262.5,-1115 156.5,-1115"/>
<text text-anchor="start" x="162.5" y="-1142.2" font-family="Helvetica,sans-Serif" font-weight="bold" font-size="11.00">⚙️ Settings</text>
<text text-anchor="start" x="162.5" y="-1132.8" font-family="Helvetica,sans-Serif" font-size="9.00">Global config</text>
<text text-anchor="start" x="162.5" y="-1123.8" font-family="Helvetica,sans-Serif" font-size="9.00">and logger</text>
<polygon fill="white" stroke="transparent" points="42.5,-1070 42.5,-1111 152.5,-1111 152.5,-1070 42.5,-1070"/>
<text text-anchor="start" x="48.5" y="-1097.2" font-family="Helvetica,sans-Serif" font-weight="bold" font-size="11.00">📦 ThumbCache</text>
<text text-anchor="start" x="48.5" y="-1087.8" font-family="Helvetica,sans-Serif" font-size="9.00">Persistent thumbnail</text>
<text text-anchor="start" x="48.5" y="-1078.8" font-family="Helvetica,sans-Serif" font-size="9.00">storage between runs</text>
<polygon fill="white" stroke="transparent" points="156.5,-1070 156.5,-1111 262.5,-1111 262.5,-1070 156.5,-1070"/>
<text text-anchor="start" x="162.5" y="-1097.2" font-family="Helvetica,sans-Serif" font-weight="bold" font-size="11.00">📐 ThumbFormat</text>
<text text-anchor="start" x="162.5" y="-1087.8" font-family="Helvetica,sans-Serif" font-size="9.00">Thumbnail size</text>
<text text-anchor="start" x="162.5" y="-1078.8" font-family="Helvetica,sans-Serif" font-size="9.00">and format config</text>
<polygon fill="none" stroke="black" points="37.5,-1065 37.5,-1189 267.5,-1189 267.5,-1065 37.5,-1065"/>
</g>
<!-- helpers&#45;&gt;vfs -->
<g id="edge2" class="edge">
<title>helpers&#45;&gt;vfs</title>
<path fill="none" stroke="#999999" stroke-dasharray="5,2" d="M275.86,-1127C285.29,-1127 294.71,-1127 304.13,-1127"/>
</g>
<!-- tr -->
<g id="node6" class="node">
<title>tr</title>
<polygon fill="#f4f7fb" stroke="transparent" points="17.5,-459 17.5,-763 771.5,-763 771.5,-459 17.5,-459"/>
<text text-anchor="start" x="28.5" y="-744.2" font-family="Helvetica,sans-Serif" font-weight="bold" font-size="11.00">HTML transformers</text>
<text text-anchor="start" x="134.5" y="-744.2" font-family="Helvetica,sans-Serif" font-size="11.00"> &#160;</text>
<text text-anchor="start" x="142.5" y="-744.2" font-family="Helvetica,sans-Serif" font-style="italic" font-size="9.00">(per page)</text>
<polygon fill="white" stroke="transparent" points="22.5,-689 22.5,-730 177.5,-730 177.5,-689 22.5,-689"/>
<text text-anchor="start" x="28.5" y="-716.2" font-family="Helvetica,sans-Serif" font-weight="bold" font-size="11.00">🎨 ReplaceInlinedStyles</text>
<text text-anchor="start" x="28.5" y="-706.8" font-family="Helvetica,sans-Serif" font-size="9.00">Strip Notion&#39;s</text>
<text text-anchor="start" x="28.5" y="-697.8" font-family="Helvetica,sans-Serif" font-size="9.00">inline style=&quot;...&quot;</text>
<polygon fill="white" stroke="transparent" points="181.5,-689 181.5,-730 333.5,-730 333.5,-689 181.5,-689"/>
<text text-anchor="start" x="187.5" y="-716.2" font-family="Helvetica,sans-Serif" font-weight="bold" font-size="11.00">📡 AddAtomFeedTags</text>
<text text-anchor="start" x="187.5" y="-706.8" font-family="Helvetica,sans-Serif" font-size="9.00">&lt;link&gt; to atom</text>
<text text-anchor="start" x="187.5" y="-697.8" font-family="Helvetica,sans-Serif" font-size="9.00">feed in &lt;head&gt;</text>
<polygon fill="white" stroke="transparent" points="337.5,-689 337.5,-730 479.5,-730 479.5,-689 337.5,-689"/>
<text text-anchor="start" x="343.5" y="-716.2" font-family="Helvetica,sans-Serif" font-weight="bold" font-size="11.00">🖼️ AddFileIcons</text>
<text text-anchor="start" x="343.5" y="-706.8" font-family="Helvetica,sans-Serif" font-size="9.00">Per&#45;extension</text>
<text text-anchor="start" x="343.5" y="-697.8" font-family="Helvetica,sans-Serif" font-size="9.00">file icons</text>
<polygon fill="white" stroke="transparent" points="483.5,-689 483.5,-730 626.5,-730 626.5,-689 483.5,-689"/>
<text text-anchor="start" x="489.5" y="-716.2" font-family="Helvetica,sans-Serif" font-weight="bold" font-size="11.00">⭐ AddFaviconLinks</text>
<text text-anchor="start" x="489.5" y="-706.8" font-family="Helvetica,sans-Serif" font-size="9.00">Favicon &lt;link&gt;</text>
<text text-anchor="start" x="489.5" y="-697.8" font-family="Helvetica,sans-Serif" font-size="9.00">tags</text>
<polygon fill="white" stroke="transparent" points="630.5,-689 630.5,-730 766.5,-730 766.5,-689 630.5,-689"/>
<text text-anchor="start" x="636.5" y="-716.2" font-family="Helvetica,sans-Serif" font-weight="bold" font-size="11.00">💝 AddPatreonButtons</text>
<text text-anchor="start" x="636.5" y="-706.8" font-family="Helvetica,sans-Serif" font-size="9.00">Inject Patreon</text>
<text text-anchor="start" x="636.5" y="-697.8" font-family="Helvetica,sans-Serif" font-size="9.00">support button</text>
<polygon fill="white" stroke="transparent" points="22.5,-644 22.5,-685 177.5,-685 177.5,-644 22.5,-644"/>
<text text-anchor="start" x="28.5" y="-671.2" font-family="Helvetica,sans-Serif" font-weight="bold" font-size="11.00">💡 AddSyntaxHighlighting</text>
<text text-anchor="start" x="28.5" y="-661.8" font-family="Helvetica,sans-Serif" font-size="9.00">Prism on &lt;pre&gt;</text>
<text text-anchor="start" x="28.5" y="-652.8" font-family="Helvetica,sans-Serif" font-size="9.00">code blocks</text>
<polygon fill="white" stroke="transparent" points="181.5,-644 181.5,-685 333.5,-685 333.5,-644 181.5,-644"/>
<text text-anchor="start" x="187.5" y="-671.2" font-family="Helvetica,sans-Serif" font-weight="bold" font-size="11.00">🍞 AddBreadcrumbs</text>
<text text-anchor="start" x="187.5" y="-661.8" font-family="Helvetica,sans-Serif" font-size="9.00">Hierarchical</text>
<text text-anchor="start" x="187.5" y="-652.8" font-family="Helvetica,sans-Serif" font-size="9.00">breadcrumb nav</text>
<polygon fill="white" stroke="transparent" points="337.5,-644 337.5,-685 479.5,-685 479.5,-644 337.5,-644"/>
<text text-anchor="start" x="343.5" y="-671.2" font-family="Helvetica,sans-Serif" font-weight="bold" font-size="11.00">▶ FixYoutubeEmbeds</text>
<text text-anchor="start" x="343.5" y="-661.8" font-family="Helvetica,sans-Serif" font-size="9.00">Wrap YT links</text>
<text text-anchor="start" x="343.5" y="-652.8" font-family="Helvetica,sans-Serif" font-size="9.00">in &lt;iframe&gt;</text>
<polygon fill="white" stroke="transparent" points="483.5,-644 483.5,-685 626.5,-685 626.5,-644 483.5,-644"/>
<text text-anchor="start" x="489.5" y="-671.2" font-family="Helvetica,sans-Serif" font-weight="bold" font-size="11.00">🎨 FixInlinedStyles</text>
<text text-anchor="start" x="489.5" y="-661.8" font-family="Helvetica,sans-Serif" font-size="9.00">Post&#45;process</text>
<text text-anchor="start" x="489.5" y="-652.8" font-family="Helvetica,sans-Serif" font-size="9.00">remaining &lt;style&gt;</text>
<polygon fill="white" stroke="transparent" points="630.5,-644 630.5,-685 766.5,-685 766.5,-644 630.5,-644"/>
<text text-anchor="start" x="636.5" y="-671.2" font-family="Helvetica,sans-Serif" font-weight="bold" font-size="11.00">💬 FixBlockquotes</text>
<text text-anchor="start" x="636.5" y="-661.8" font-family="Helvetica,sans-Serif" font-size="9.00">Preserve newlines</text>
<text text-anchor="start" x="636.5" y="-652.8" font-family="Helvetica,sans-Serif" font-size="9.00">in quotes</text>
<polygon fill="white" stroke="transparent" points="22.5,-599 22.5,-640 177.5,-640 177.5,-599 22.5,-599"/>
<text text-anchor="start" x="28.5" y="-626.2" font-family="Helvetica,sans-Serif" font-weight="bold" font-size="11.00">📎 FixFileUploads</text>
<text text-anchor="start" x="28.5" y="-616.8" font-family="Helvetica,sans-Serif" font-size="9.00">Rename + link</text>
<text text-anchor="start" x="28.5" y="-607.8" font-family="Helvetica,sans-Serif" font-size="9.00">uploaded files</text>
<polygon fill="white" stroke="transparent" points="181.5,-599 181.5,-640 333.5,-640 333.5,-599 181.5,-599"/>
<text text-anchor="start" x="187.5" y="-626.2" font-family="Helvetica,sans-Serif" font-weight="bold" font-size="11.00">☑️ FixCheckboxes</text>
<text text-anchor="start" x="187.5" y="-616.8" font-family="Helvetica,sans-Serif" font-size="9.00">Repair broken</text>
<text text-anchor="start" x="187.5" y="-607.8" font-family="Helvetica,sans-Serif" font-size="9.00">checkbox markup</text>
<polygon fill="white" stroke="transparent" points="337.5,-599 337.5,-640 479.5,-640 479.5,-599 337.5,-599"/>
<text text-anchor="start" x="343.5" y="-626.2" font-family="Helvetica,sans-Serif" font-weight="bold" font-size="11.00">↔ FixCodeBlocksDir</text>
<text text-anchor="start" x="343.5" y="-616.8" font-family="Helvetica,sans-Serif" font-size="9.00">Force dir=ltr</text>
<text text-anchor="start" x="343.5" y="-607.8" font-family="Helvetica,sans-Serif" font-size="9.00">on code blocks</text>
<polygon fill="white" stroke="transparent" points="483.5,-599 483.5,-640 626.5,-640 626.5,-599 483.5,-599"/>
<text text-anchor="start" x="489.5" y="-626.2" font-family="Helvetica,sans-Serif" font-weight="bold" font-size="11.00">▾ FixToggleBlocks</text>
<text text-anchor="start" x="489.5" y="-616.8" font-family="Helvetica,sans-Serif" font-size="9.00">Collapse</text>
<text text-anchor="start" x="489.5" y="-607.8" font-family="Helvetica,sans-Serif" font-size="9.00">&lt;details open&gt;</text>
<polygon fill="white" stroke="transparent" points="630.5,-599 630.5,-640 766.5,-640 766.5,-599 630.5,-599"/>
<text text-anchor="start" x="636.5" y="-626.2" font-family="Helvetica,sans-Serif" font-weight="bold" font-size="11.00">✂ ShortenHeadingIds</text>
<text text-anchor="start" x="636.5" y="-616.8" font-family="Helvetica,sans-Serif" font-size="9.00">UUID → 4&#45;char</text>
<text text-anchor="start" x="636.5" y="-607.8" font-family="Helvetica,sans-Serif" font-size="9.00">heading ids</text>
<polygon fill="white" stroke="transparent" points="22.5,-554 22.5,-595 177.5,-595 177.5,-554 22.5,-554"/>
<text text-anchor="start" x="28.5" y="-581.2" font-family="Helvetica,sans-Serif" font-weight="bold" font-size="11.00">🔗 AddHeadingAnchors</text>
<text text-anchor="start" x="28.5" y="-571.8" font-family="Helvetica,sans-Serif" font-size="9.00">Hover&#45;reveal 🔗</text>
<text text-anchor="start" x="28.5" y="-562.8" font-family="Helvetica,sans-Serif" font-size="9.00">anchor links</text>
<polygon fill="white" stroke="transparent" points="181.5,-554 181.5,-595 333.5,-595 333.5,-554 181.5,-554"/>
<text text-anchor="start" x="187.5" y="-581.2" font-family="Helvetica,sans-Serif" font-weight="bold" font-size="11.00">🏠 MakeNotionLinksLocal</text>
<text text-anchor="start" x="187.5" y="-571.8" font-family="Helvetica,sans-Serif" font-size="9.00">Stale notion.so</text>
<text text-anchor="start" x="187.5" y="-562.8" font-family="Helvetica,sans-Serif" font-size="9.00">URLs → local</text>
<polygon fill="white" stroke="transparent" points="337.5,-554 337.5,-595 479.5,-595 479.5,-554 337.5,-554"/>
<text text-anchor="start" x="343.5" y="-581.2" font-family="Helvetica,sans-Serif" font-weight="bold" font-size="11.00">🃏 AddSocialCards</text>
<text text-anchor="start" x="343.5" y="-571.8" font-family="Helvetica,sans-Serif" font-size="9.00">og: + twitter:</text>
<text text-anchor="start" x="343.5" y="-562.8" font-family="Helvetica,sans-Serif" font-size="9.00">card meta tags</text>
<polygon fill="white" stroke="transparent" points="483.5,-554 483.5,-595 626.5,-595 626.5,-554 483.5,-554"/>
<text text-anchor="start" x="489.5" y="-581.2" font-family="Helvetica,sans-Serif" font-weight="bold" font-size="11.00">🌅 GenerateThumbnails</text>
<text text-anchor="start" x="489.5" y="-571.8" font-family="Helvetica,sans-Serif" font-size="9.00">Resized cached</text>
<text text-anchor="start" x="489.5" y="-562.8" font-family="Helvetica,sans-Serif" font-size="9.00">image thumbs</text>
<polygon fill="white" stroke="transparent" points="630.5,-554 630.5,-595 766.5,-595 766.5,-554 630.5,-554"/>
<text text-anchor="start" x="636.5" y="-581.2" font-family="Helvetica,sans-Serif" font-weight="bold" font-size="11.00">🐦 AddScripts+Twitter</text>
<text text-anchor="start" x="636.5" y="-571.8" font-family="Helvetica,sans-Serif" font-size="9.00">Tweet share</text>
<text text-anchor="start" x="636.5" y="-562.8" font-family="Helvetica,sans-Serif" font-size="9.00">button + scripts</text>
<polygon fill="white" stroke="transparent" points="22.5,-509 22.5,-550 177.5,-550 177.5,-509 22.5,-509"/>
<text text-anchor="start" x="28.5" y="-536.2" font-family="Helvetica,sans-Serif" font-weight="bold" font-size="11.00">🏷️ AddMetaTags</text>
<text text-anchor="start" x="28.5" y="-526.8" font-family="Helvetica,sans-Serif" font-size="9.00">Generic &lt;meta&gt;</text>
<text text-anchor="start" x="28.5" y="-517.8" font-family="Helvetica,sans-Serif" font-size="9.00">(desc, author...)</text>
<polygon fill="white" stroke="transparent" points="181.5,-509 181.5,-550 333.5,-550 333.5,-509 181.5,-509"/>
<text text-anchor="start" x="187.5" y="-536.2" font-family="Helvetica,sans-Serif" font-weight="bold" font-size="11.00">📜 UnrollSections</text>
<text text-anchor="start" x="187.5" y="-526.8" font-family="Helvetica,sans-Serif" font-size="9.00">Inline articles</text>
<text text-anchor="start" x="187.5" y="-517.8" font-family="Helvetica,sans-Serif" font-size="9.00">in unroll sections</text>
<polygon fill="white" stroke="transparent" points="337.5,-509 337.5,-550 479.5,-550 479.5,-509 337.5,-509"/>
<text text-anchor="start" x="343.5" y="-536.2" font-family="Helvetica,sans-Serif" font-weight="bold" font-size="11.00">📝 UnrollSubpageDescr</text>
<text text-anchor="start" x="343.5" y="-526.8" font-family="Helvetica,sans-Serif" font-size="9.00">Show subpage</text>
<text text-anchor="start" x="343.5" y="-517.8" font-family="Helvetica,sans-Serif" font-size="9.00">descriptions inline</text>
<polygon fill="white" stroke="transparent" points="483.5,-509 483.5,-550 626.5,-550 626.5,-509 483.5,-509"/>
<text text-anchor="start" x="489.5" y="-536.2" font-family="Helvetica,sans-Serif" font-weight="bold" font-size="11.00">🗂️ UnrollCategories</text>
<text text-anchor="start" x="489.5" y="-526.8" font-family="Helvetica,sans-Serif" font-size="9.00">Index pages list</text>
<text text-anchor="start" x="489.5" y="-517.8" font-family="Helvetica,sans-Serif" font-size="9.00">their children</text>
<polygon fill="white" stroke="transparent" points="630.5,-509 630.5,-550 766.5,-550 766.5,-509 630.5,-509"/>
<text text-anchor="start" x="636.5" y="-536.2" font-family="Helvetica,sans-Serif" font-weight="bold" font-size="11.00">📚 Sidebar:LastFive</text>
<text text-anchor="start" x="636.5" y="-526.8" font-family="Helvetica,sans-Serif" font-size="9.00">Recent 5 articles</text>
<text text-anchor="start" x="636.5" y="-517.8" font-family="Helvetica,sans-Serif" font-size="9.00">in sidebar</text>
<polygon fill="white" stroke="transparent" points="22.5,-464 22.5,-505 177.5,-505 177.5,-464 22.5,-464"/>
<text text-anchor="start" x="28.5" y="-491.2" font-family="Helvetica,sans-Serif" font-weight="bold" font-size="11.00">📂 Sidebar:Categories</text>
<text text-anchor="start" x="28.5" y="-481.8" font-family="Helvetica,sans-Serif" font-size="9.00">Top section</text>
<text text-anchor="start" x="28.5" y="-472.8" font-family="Helvetica,sans-Serif" font-size="9.00">links in sidebar</text>
<polygon fill="white" stroke="transparent" points="181.5,-464 181.5,-505 333.5,-505 333.5,-464 181.5,-464"/>
<text text-anchor="start" x="187.5" y="-491.2" font-family="Helvetica,sans-Serif" font-weight="bold" font-size="11.00">↩ Sidebar:Backlinks</text>
<text text-anchor="start" x="187.5" y="-481.8" font-family="Helvetica,sans-Serif" font-size="9.00">Pages linking</text>
<text text-anchor="start" x="187.5" y="-472.8" font-family="Helvetica,sans-Serif" font-size="9.00">to this one</text>
<polygon fill="white" stroke="transparent" points="337.5,-464 337.5,-505 479.5,-505 479.5,-464 337.5,-464"/>
<text text-anchor="start" x="343.5" y="-491.2" font-family="Helvetica,sans-Serif" font-weight="bold" font-size="11.00">📊 AddGoogleTags</text>
<text text-anchor="start" x="343.5" y="-481.8" font-family="Helvetica,sans-Serif" font-size="9.00">Analytics +</text>
<text text-anchor="start" x="343.5" y="-472.8" font-family="Helvetica,sans-Serif" font-size="9.00">Adsense scripts</text>
<polygon fill="white" stroke="transparent" points="483.5,-464 483.5,-505 626.5,-505 626.5,-464 483.5,-464"/>
<text text-anchor="start" x="489.5" y="-491.2" font-family="Helvetica,sans-Serif" font-weight="bold" font-size="11.00">🖼 ProcessImages</text>
<text text-anchor="start" x="489.5" y="-481.8" font-family="Helvetica,sans-Serif" font-size="9.00">Linkify, drop</text>
<text text-anchor="start" x="489.5" y="-472.8" font-family="Helvetica,sans-Serif" font-size="9.00">ignored images</text>
<polygon fill="#f4f7fb" stroke="transparent" points="630.5,-464 630.5,-505 766.5,-505 766.5,-464 630.5,-464"/>
<polygon fill="none" stroke="black" points="17.5,-459 17.5,-763 771.5,-763 771.5,-459 17.5,-459"/>
</g>
<!-- pre&#45;&gt;tr -->
<g id="edge5" class="edge">
<title>pre&#45;&gt;tr</title>
<path fill="none" stroke="#4a6fa5" d="M394.5,-802.76C394.5,-793.88 394.5,-784.68 394.5,-775.33"/>
<polygon fill="#4a6fa5" stroke="#4a6fa5" points="397.3,-775.07 394.5,-767.07 391.7,-775.07 397.3,-775.07"/>
</g>
<!-- post -->
<g id="node7" class="node">
<title>post</title>
<polygon fill="#f4f7fb" stroke="transparent" points="8,-291 8,-415 781,-415 781,-291 8,-291"/>
<text text-anchor="start" x="19.5" y="-396.2" font-family="Helvetica,sans-Serif" font-weight="bold" font-size="11.00">Postprocessors</text>
<text text-anchor="start" x="104.5" y="-396.2" font-family="Helvetica,sans-Serif" font-size="11.00"> &#160;</text>
<text text-anchor="start" x="112.5" y="-396.2" font-family="Helvetica,sans-Serif" font-style="italic" font-size="9.00">(whole tree)</text>
<polygon fill="white" stroke="transparent" points="13.5,-341 13.5,-382 171.5,-382 171.5,-341 13.5,-341"/>
<text text-anchor="start" x="19.5" y="-368.2" font-family="Helvetica,sans-Serif" font-weight="bold" font-size="11.00">🔧 FixInterestingArticles</text>
<text text-anchor="start" x="19.5" y="-358.8" font-family="Helvetica,sans-Serif" font-size="9.00">Repair &quot;interesting</text>
<text text-anchor="start" x="19.5" y="-349.8" font-family="Helvetica,sans-Serif" font-size="9.00">articles&quot; URLs</text>
<polygon fill="white" stroke="transparent" points="175.5,-341 175.5,-382 319.5,-382 319.5,-341 175.5,-341"/>
<text text-anchor="start" x="181.5" y="-368.2" font-family="Helvetica,sans-Serif" font-weight="bold" font-size="11.00">📰 AddMinichangelog</text>
<text text-anchor="start" x="181.5" y="-358.8" font-family="Helvetica,sans-Serif" font-size="9.00">Latest posts on</text>
<text text-anchor="start" x="181.5" y="-349.8" font-family="Helvetica,sans-Serif" font-size="9.00">root index</text>
<polygon fill="white" stroke="transparent" points="323.5,-341 323.5,-382 480.5,-382 480.5,-341 323.5,-341"/>
<text text-anchor="start" x="329.5" y="-368.2" font-family="Helvetica,sans-Serif" font-weight="bold" font-size="11.00">🏷️ AddTagLinksToRoot</text>
<text text-anchor="start" x="329.5" y="-358.8" font-family="Helvetica,sans-Serif" font-size="9.00">Tags/Tagy entries</text>
<text text-anchor="start" x="329.5" y="-349.8" font-family="Helvetica,sans-Serif" font-size="9.00">on root index</text>
<polygon fill="white" stroke="transparent" points="484.5,-341 484.5,-382 636.5,-382 636.5,-341 484.5,-341"/>
<text text-anchor="start" x="490.5" y="-368.2" font-family="Helvetica,sans-Serif" font-weight="bold" font-size="11.00">ℹ AddMetadataToRoot</text>
<text text-anchor="start" x="490.5" y="-358.8" font-family="Helvetica,sans-Serif" font-size="9.00">Meta info block</text>
<text text-anchor="start" x="490.5" y="-349.8" font-family="Helvetica,sans-Serif" font-size="9.00">on root index</text>
<polygon fill="white" stroke="transparent" points="640.5,-341 640.5,-382 776.5,-382 776.5,-341 640.5,-341"/>
<text text-anchor="start" x="646.5" y="-368.2" font-family="Helvetica,sans-Serif" font-weight="bold" font-size="11.00">📡 GenerateAtomFeed</text>
<text text-anchor="start" x="646.5" y="-358.8" font-family="Helvetica,sans-Serif" font-size="9.00">EN + CZ</text>
<text text-anchor="start" x="646.5" y="-349.8" font-family="Helvetica,sans-Serif" font-size="9.00">atom.xml feeds</text>
<polygon fill="white" stroke="transparent" points="13.5,-296 13.5,-337 171.5,-337 171.5,-296 13.5,-296"/>
<text text-anchor="start" x="19.5" y="-323.2" font-family="Helvetica,sans-Serif" font-weight="bold" font-size="11.00">🐦 ConvertTwitterCardURL</text>
<text text-anchor="start" x="19.5" y="-313.8" font-family="Helvetica,sans-Serif" font-size="9.00">Relative → absolute</text>
<text text-anchor="start" x="19.5" y="-304.8" font-family="Helvetica,sans-Serif" font-size="9.00">card image URLs</text>
<polygon fill="white" stroke="transparent" points="175.5,-296 175.5,-337 319.5,-337 319.5,-296 175.5,-296"/>
<text text-anchor="start" x="181.5" y="-323.2" font-family="Helvetica,sans-Serif" font-weight="bold" font-size="11.00">🤖 AddRobots+Sitemap</text>
<text text-anchor="start" x="181.5" y="-313.8" font-family="Helvetica,sans-Serif" font-size="9.00">robots.txt and</text>
<text text-anchor="start" x="181.5" y="-304.8" font-family="Helvetica,sans-Serif" font-size="9.00">sitemap.xml</text>
<polygon fill="white" stroke="transparent" points="323.5,-296 323.5,-337 480.5,-337 480.5,-296 323.5,-296"/>
<text text-anchor="start" x="329.5" y="-323.2" font-family="Helvetica,sans-Serif" font-weight="bold" font-size="11.00">📑 AddSidebarsToAllPages</text>
<text text-anchor="start" x="329.5" y="-313.8" font-family="Helvetica,sans-Serif" font-size="9.00">Inject finalized</text>
<text text-anchor="start" x="329.5" y="-304.8" font-family="Helvetica,sans-Serif" font-size="9.00">sidebar HTML</text>
<polygon fill="white" stroke="transparent" points="484.5,-296 484.5,-337 636.5,-337 636.5,-296 484.5,-296"/>
<text text-anchor="start" x="490.5" y="-323.2" font-family="Helvetica,sans-Serif" font-weight="bold" font-size="11.00">⬆ MoveCoverImageToTop</text>
<text text-anchor="start" x="490.5" y="-313.8" font-family="Helvetica,sans-Serif" font-size="9.00">Cover above</text>
<text text-anchor="start" x="490.5" y="-304.8" font-family="Helvetica,sans-Serif" font-size="9.00">sidebar+breadcrumb</text>
<polygon fill="#f4f7fb" stroke="transparent" points="640.5,-296 640.5,-337 776.5,-337 776.5,-296 640.5,-296"/>
<polygon fill="none" stroke="black" points="8,-291 8,-415 781,-415 781,-291 8,-291"/>
</g>
<!-- tr&#45;&gt;post -->
<g id="edge6" class="edge">
<title>tr&#45;&gt;post</title>
<path fill="none" stroke="#4a6fa5" d="M394.5,-454.81C394.5,-445.42 394.5,-436.24 394.5,-427.47"/>
<polygon fill="#4a6fa5" stroke="#4a6fa5" points="397.3,-427.2 394.5,-419.2 391.7,-427.2 397.3,-427.2"/>
</g>
<!-- out -->
<g id="node8" class="node">
<title>out</title>
<polygon fill="#fdf6e3" stroke="transparent" points="317.5,-217 317.5,-247 471.5,-247 471.5,-217 317.5,-217"/>
<polygon fill="none" stroke="black" points="317.5,-217 317.5,-247 471.5,-247 471.5,-217 317.5,-217"/>
<text text-anchor="start" x="326.5" y="-230.2" font-family="Helvetica,sans-Serif" font-weight="bold" font-size="11.00">📁 blog_root/</text>
<text text-anchor="start" x="402.5" y="-230.2" font-family="Helvetica,sans-Serif" font-size="11.00"> &#160;</text>
<text text-anchor="start" x="410.5" y="-230.2" font-family="Helvetica,sans-Serif" font-style="italic" font-size="9.00">static HTML</text>
</g>
<!-- post&#45;&gt;out -->
<g id="edge7" class="edge">
<title>post&#45;&gt;out</title>
<path fill="none" stroke="#4a6fa5" d="M394.5,-286.93C394.5,-277.26 394.5,-267.8 394.5,-259.56"/>
<polygon fill="#4a6fa5" stroke="#4a6fa5" points="397.3,-259.46 394.5,-251.46 391.7,-259.46 397.3,-259.46"/>
</g>
<!-- files -->
<g id="node9" class="node">
<title>files</title>
<polygon fill="#fdf6e3" stroke="transparent" points="85,-4 85,-173 704,-173 704,-4 85,-4"/>
<text text-anchor="start" x="96.5" y="-153.7" font-family="Helvetica,sans-Serif" font-weight="bold" font-size="11.00">Output artifacts</text>
<text text-anchor="start" x="184.5" y="-153.7" font-family="Helvetica,sans-Serif" font-size="11.00"> &#160;</text>
<text text-anchor="start" x="192.5" y="-153.7" font-family="Helvetica,sans-Serif" font-style="italic" font-size="9.00">(blog_root/ contents)</text>
<polygon fill="white" stroke="transparent" points="90.5,-98.5 90.5,-139.5 251.5,-139.5 251.5,-98.5 90.5,-98.5"/>
<text text-anchor="start" x="96.5" y="-125.7" font-family="Helvetica,sans-Serif" font-weight="bold" font-size="11.00">📄 *.html</text>
<text text-anchor="start" x="96.5" y="-116.3" font-family="Helvetica,sans-Serif" font-size="9.00">Articles, indexes,</text>
<text text-anchor="start" x="96.5" y="-107.3" font-family="Helvetica,sans-Serif" font-size="9.00">tag pages</text>
<polygon fill="white" stroke="transparent" points="255.5,-98.5 255.5,-139.5 366.5,-139.5 366.5,-98.5 255.5,-98.5"/>
<text text-anchor="start" x="261.5" y="-125.7" font-family="Helvetica,sans-Serif" font-weight="bold" font-size="11.00">📁 en/, cz/, Tags/</text>
<text text-anchor="start" x="261.5" y="-116.3" font-family="Helvetica,sans-Serif" font-size="9.00">Section + tag</text>
<text text-anchor="start" x="261.5" y="-107.3" font-family="Helvetica,sans-Serif" font-size="9.00">directory tree</text>
<polygon fill="white" stroke="transparent" points="370.5,-98.5 370.5,-139.5 461.5,-139.5 461.5,-98.5 370.5,-98.5"/>
<text text-anchor="start" x="376.5" y="-125.7" font-family="Helvetica,sans-Serif" font-weight="bold" font-size="11.00">🖼 *.png/.jpg</text>
<text text-anchor="start" x="376.5" y="-116.3" font-family="Helvetica,sans-Serif" font-size="9.00">Originals + linked</text>
<text text-anchor="start" x="376.5" y="-107.3" font-family="Helvetica,sans-Serif" font-size="9.00">images</text>
<polygon fill="white" stroke="transparent" points="465.5,-98.5 465.5,-139.5 565.5,-139.5 565.5,-98.5 465.5,-98.5"/>
<text text-anchor="start" x="471.5" y="-125.7" font-family="Helvetica,sans-Serif" font-weight="bold" font-size="11.00">🌅 *_thumb.jpg</text>
<text text-anchor="start" x="471.5" y="-116.3" font-family="Helvetica,sans-Serif" font-size="9.00">Generated</text>
<text text-anchor="start" x="471.5" y="-107.3" font-family="Helvetica,sans-Serif" font-size="9.00">thumbnails</text>
<polygon fill="white" stroke="transparent" points="569.5,-98.5 569.5,-139.5 699.5,-139.5 699.5,-98.5 569.5,-98.5"/>
<text text-anchor="start" x="575.5" y="-125.7" font-family="Helvetica,sans-Serif" font-weight="bold" font-size="11.00">📦 .thumb_cache/</text>
<text text-anchor="start" x="575.5" y="-116.3" font-family="Helvetica,sans-Serif" font-size="9.00">Persistent thumb</text>
<text text-anchor="start" x="575.5" y="-107.3" font-family="Helvetica,sans-Serif" font-size="9.00">cache between runs</text>
<polygon fill="white" stroke="transparent" points="90.5,-53.5 90.5,-94.5 251.5,-94.5 251.5,-53.5 90.5,-53.5"/>
<text text-anchor="start" x="96.5" y="-80.7" font-family="Helvetica,sans-Serif" font-weight="bold" font-size="11.00">📡 atom.xml, atom_cz.xml</text>
<text text-anchor="start" x="96.5" y="-71.3" font-family="Helvetica,sans-Serif" font-size="9.00">RSS/Atom feeds</text>
<text text-anchor="start" x="96.5" y="-62.3" font-family="Helvetica,sans-Serif" font-size="9.00">per language</text>
<polygon fill="white" stroke="transparent" points="255.5,-53.5 255.5,-94.5 366.5,-94.5 366.5,-53.5 255.5,-53.5"/>
<text text-anchor="start" x="261.5" y="-80.7" font-family="Helvetica,sans-Serif" font-weight="bold" font-size="11.00">🗺 sitemap.xml</text>
<text text-anchor="start" x="261.5" y="-71.3" font-family="Helvetica,sans-Serif" font-size="9.00">All URLs with</text>
<text text-anchor="start" x="261.5" y="-62.3" font-family="Helvetica,sans-Serif" font-size="9.00">last&#45;modified</text>
<polygon fill="white" stroke="transparent" points="370.5,-53.5 370.5,-94.5 461.5,-94.5 461.5,-53.5 370.5,-53.5"/>
<text text-anchor="start" x="376.5" y="-80.7" font-family="Helvetica,sans-Serif" font-weight="bold" font-size="11.00">🤖 robots.txt</text>
<text text-anchor="start" x="376.5" y="-71.3" font-family="Helvetica,sans-Serif" font-size="9.00">Crawler</text>
<text text-anchor="start" x="376.5" y="-62.3" font-family="Helvetica,sans-Serif" font-size="9.00">directives</text>
<polygon fill="white" stroke="transparent" points="465.5,-53.5 465.5,-94.5 565.5,-94.5 565.5,-53.5 465.5,-53.5"/>
<text text-anchor="start" x="471.5" y="-80.7" font-family="Helvetica,sans-Serif" font-weight="bold" font-size="11.00">💰 ads.txt</text>
<text text-anchor="start" x="471.5" y="-71.3" font-family="Helvetica,sans-Serif" font-size="9.00">AdSense</text>
<text text-anchor="start" x="471.5" y="-62.3" font-family="Helvetica,sans-Serif" font-size="9.00">verification</text>
<polygon fill="white" stroke="transparent" points="569.5,-53.5 569.5,-94.5 699.5,-94.5 699.5,-53.5 569.5,-53.5"/>
<text text-anchor="start" x="575.5" y="-80.7" font-family="Helvetica,sans-Serif" font-weight="bold" font-size="11.00">↪ nginx_redirects.txt</text>
<text text-anchor="start" x="575.5" y="-71.3" font-family="Helvetica,sans-Serif" font-size="9.00">Old → new path</text>
<text text-anchor="start" x="575.5" y="-62.3" font-family="Helvetica,sans-Serif" font-size="9.00">map</text>
<polygon fill="white" stroke="transparent" points="90.5,-8.5 90.5,-49.5 251.5,-49.5 251.5,-8.5 90.5,-8.5"/>
<text text-anchor="start" x="96.5" y="-35.7" font-family="Helvetica,sans-Serif" font-weight="bold" font-size="11.00">🎨 style.css</text>
<text text-anchor="start" x="96.5" y="-26.3" font-family="Helvetica,sans-Serif" font-size="9.00">Notion&#39;s CSS +</text>
<text text-anchor="start" x="96.5" y="-17.3" font-family="Helvetica,sans-Serif" font-size="9.00">custom_style</text>
<polygon fill="white" stroke="transparent" points="255.5,-8.5 255.5,-49.5 366.5,-49.5 366.5,-8.5 255.5,-8.5"/>
<text text-anchor="start" x="261.5" y="-35.7" font-family="Helvetica,sans-Serif" font-weight="bold" font-size="11.00">📜 scripts.js</text>
<text text-anchor="start" x="261.5" y="-26.3" font-family="Helvetica,sans-Serif" font-size="9.00">Client&#45;side JS</text>
<text text-anchor="start" x="261.5" y="-17.3" font-family="Helvetica,sans-Serif" font-size="9.00">(prism, …)</text>
<polygon fill="white" stroke="transparent" points="370.5,-8.5 370.5,-49.5 461.5,-49.5 461.5,-8.5 370.5,-8.5"/>
<text text-anchor="start" x="376.5" y="-35.7" font-family="Helvetica,sans-Serif" font-weight="bold" font-size="11.00">⭐ favicon.ico</text>
<text text-anchor="start" x="376.5" y="-26.3" font-family="Helvetica,sans-Serif" font-size="9.00">Site</text>
<text text-anchor="start" x="376.5" y="-17.3" font-family="Helvetica,sans-Serif" font-size="9.00">favicon</text>
<polygon fill="white" stroke="transparent" points="465.5,-8.5 465.5,-49.5 565.5,-49.5 565.5,-8.5 465.5,-8.5"/>
<text text-anchor="start" x="471.5" y="-35.7" font-family="Helvetica,sans-Serif" font-weight="bold" font-size="11.00">🔤 NotoEmoji.*</text>
<text text-anchor="start" x="471.5" y="-26.3" font-family="Helvetica,sans-Serif" font-size="9.00">Embedded font</text>
<text text-anchor="start" x="471.5" y="-17.3" font-family="Helvetica,sans-Serif" font-size="9.00">for emoji</text>
<polygon fill="white" stroke="transparent" points="569.5,-8.5 569.5,-49.5 699.5,-49.5 699.5,-8.5 569.5,-8.5"/>
<text text-anchor="start" x="575.5" y="-35.7" font-family="Helvetica,sans-Serif" font-weight="bold" font-size="11.00">📄 *.csv</text>
<text text-anchor="start" x="575.5" y="-26.3" font-family="Helvetica,sans-Serif" font-size="9.00">Source data</text>
<text text-anchor="start" x="575.5" y="-17.3" font-family="Helvetica,sans-Serif" font-size="9.00">(Changelog, …)</text>
<polygon fill="none" stroke="black" points="85,-4 85,-173 704,-173 704,-4 85,-4"/>
</g>
<!-- out&#45;&gt;files -->
<g id="edge8" class="edge">
<title>out&#45;&gt;files</title>
<path fill="none" stroke="#999999" stroke-dasharray="5,2" d="M394.5,-212.79C394.5,-203.16 394.5,-190.56 394.5,-177.09"/>
</g>
</g>
</svg>
